  <svg version="1.1" xmlns="http://www.w3.org/2000/svg" x="0" y="0" width="24" height="24" viewBox="0 0 24 24" xml:space="preserve" fill="#5cb85c"><path d="M11 9.153v7.652c0 .276.224.5.5.5s.5-.224.5-.5V9.153c0-.276-.224-.5-.5-.5s-.5.224-.5.5z"/><path d="M11.947 1.276c-.17-.339-.725-.339-.895 0l-11 22c-.166.335.079.724.448.724h22c.007 0 .015.001.02 0 .438 0 .657-.519.372-.834L11.947 1.276zM1.309 23L11.5 2.618 21.691 23H1.309z"/><circle cx="11.5" cy="20" r="1"/><path fill="none" d="M0 0h24v24H0z"/></svg>
