<svg version="1.1" id="Слой_1" xmlns="http://www.w3.org/2000/svg" xmlns:xlink="http://www.w3.org/1999/xlink" x="0px" y="0px"
	 viewBox="0 0 98 98" style="enable-background:new 0 0 98 98;" xml:space="preserve">

<path class="icon-color-fill-secondary" d="M25,27h48c0.6,0,1,0.4,1,1l0,0c0,0.6-0.4,1-1,1H25c-0.6,0-1-0.4-1-1l0,0C24,27.4,24.4,27,25,27z"/>
<path class="icon-color-fill-secondary" d="M25,37h38c0.6,0,1,0.4,1,1l0,0c0,0.6-0.4,1-1,1H25c-0.6,0-1-0.4-1-1l0,0C24,37.4,24.4,37,25,37z"/>
<path class="icon-color-fill-secondary" d="M25,47h43c0.6,0,1,0.4,1,1l0,0c0,0.6-0.4,1-1,1H25c-0.6,0-1-0.4-1-1l0,0C24,47.4,24.4,47,25,47z"/>
<path class="icon-color-fill-primary" d="M87.1,34.6L84,32.4V21c0-2.2-1.8-4-4-4H61.9l-8-5.6c-2.7-1.9-7.1-1.9-9.8,0l-8,5.6H18c-2.2,0-4,1.8-4,4v11.4
	l-3.1,2.1C8.2,36.5,6,40.7,6,44v6v31v0v1v0c0,3.3,2.7,6,6,6h74c3.3,0,6-2.7,6-6v0v-1v0V50v-6C92,40.7,89.8,36.5,87.1,34.6z
	 M45.2,13.1c1-0.7,2.4-1.1,3.8-1.1c1.4,0,2.8,0.4,3.8,1.1l5.6,3.9H39.6L45.2,13.1z M8,44c0-2.6,1.9-6.3,4.1-7.8l1.9-1.3v17.8l-6-2
	V44z M90,82c0,2.2-1.8,4-4,4H12c-2.2,0-4-1.8-4-4v-1c0-0.9,0.8-2.1,1.6-2.5l34.8-16.2c1.2-0.6,2.9-0.9,4.6-0.9
	c1.7,0,3.4,0.3,4.6,0.9l34.8,16.2c0.8,0.4,1.6,1.6,1.6,2.5V82z M90,77.2L90,77.2c-0.2-0.2-0.5-0.3-0.7-0.5L54.4,60.5
	c-3-1.4-7.9-1.4-10.9,0L8.7,76.7C8.5,76.9,8.2,77,8,77.2v0V52.8L38.3,63l2.6-1.2l-25-8.4V21c0-1.1,0.9-2,2-2h62c1.1,0,2,0.9,2,2
	v32.4l-25,8.4l2.6,1.2L90,52.8V77.2z M90,50.7l-6,2V34.9l1.9,1.3c2.2,1.5,4.1,5.2,4.1,7.8V50.7z"/>
</svg>
